<?xml version="1.0" encoding="UTF-8"?>
<svg width="20px" height="20px" viewBox="0 0 20 20" version="1.1" xmlns="http://www.w3.org/2000/svg" xmlns:xlink="http://www.w3.org/1999/xlink">
    <g stroke="none" stroke-width="1" fill="none" fill-rule="evenodd">
        <path d="M6.29878049,7.51219512 L7.51219512,4.87804878 L10.1463415,7.51219512 L11.3597561,4.87804878 L13.9939024,7.51219512 L15.2073171,4.87804878 L17.8414634,7.51219512 C17.8414634,7.51219512 18.4512195,5.48780488 18.4512195,3.46341463 C18.4512195,1.43902439 16.4268293,0.22560976 14.4024390,0.22560976 C12.3780488,0.22560976 11.3597561,1.43902439 10.1463415,1.43902439 C8.93292683,1.43902439 7.91463415,0.22560976 5.89024390,0.22560976 C3.86585366,0.22560976 1.84146341,1.43902439 1.84146341,3.46341463 C1.84146341,5.48780488 2.45121951,7.51219512 2.45121951,7.51219512 L5.08536585,4.87804878 L6.29878049,7.51219512 Z M10.1463415,8.72560976 C9.53658537,10.1439024 8.32317073,12.7780488 8.32317073,14.8024390 C8.32317073,16.8268293 9.53658537,18.0402439 10.1463415,18.0402439 C10.7560976,18.0402439 11.9695122,16.8268293 11.9695122,14.8024390 C11.9695122,12.7780488 10.7560976,10.1439024 10.1463415,8.72560976 Z" fill="#FFFFFF"></path>
    </g>
</svg>
