<?xml version="1.0" encoding="UTF-8"?>
<svg width="20px" height="20px" viewBox="0 0 20 20" version="1.1" xmlns="http://www.w3.org/2000/svg" xmlns:xlink="http://www.w3.org/1999/xlink">
    <g stroke="none" stroke-width="1" fill="none" fill-rule="evenodd">
        <path d="M10,1 C14.9705627,1 19,5.02943725 19,10 C19,14.9705627 14.9705627,19 10,19 C8.56555736,19 7.20755251,18.6798311 6,18.1099416 L2.5,19 L3.39005842,15.5 C2.82016886,14.2924475 2.5,12.9344426 2.5,11.5 C2.5,6.52943725 6.52943725,2.5 11.5,2.5 C12.9344426,2.5 14.2924475,2.82016886 15.5,3.39005842 L19,2.5 L18.1099416,6 C18.6798311,7.20755251 19,8.56555736 19,10 Z M10,17 C13.8659932,17 17,13.8659932 17,10 C17,6.13400675 13.8659932,3 10,3 C6.13400675,3 3,6.13400675 3,10 C3,11.3881855 3.36553208,12.6878676 4.01564482,13.8060353 L4.15414838,14.0419536 L3.58859116,16.4114088 L5.95804638,15.8458516 L6.19396473,15.9843552 C7.31213236,16.6344679 8.61181449,17 10,17 Z M7,9 L13,9 L13,11 L7,11 L7,9 Z" fill="#3B82F6" fill-rule="nonzero"></path>
    </g>
</svg>
