<?xml version="1.0" encoding="UTF-8"?>
<svg width="20px" height="20px" viewBox="0 0 20 20" version="1.1" xmlns="http://www.w3.org/2000/svg" xmlns:xlink="http://www.w3.org/1999/xlink">
    <g stroke="none" stroke-width="1" fill="none" fill-rule="evenodd">
        <path d="M10,2 C14.418278,2 18,5.581722 18,10 C18,14.418278 14.418278,18 10,18 C5.581722,18 2,14.418278 2,10 C2,5.581722 5.581722,2 10,2 Z M16.0763818,10.5 C15.8854684,10.4561799 13.8573604,9.97502733 11.7908546,10.2921096 C12.8819867,13.0058822 13.3062906,15.2076922 13.3803775,15.7500733 C15.1822093,14.5835959 16.4063958,12.6988048 16.0763818,10.5 Z M12.1803775,16.3500733 C12.0763818,15.5835959 11.5763818,13.2500733 10.3803775,10.5835959 C10.3803775,10.5835959 10.3803775,10.5835959 10.3803775,10.5835959 C6.08037752,11.9170507 4.58037752,14.7500733 4.38037752,15.0835959 C5.78037752,16.1835959 7.58037752,16.8500733 9.58037752,16.8500733 C10.4803775,16.8500733 11.3803775,16.6835959 12.1803775,16.3500733 Z M3.58037752,14.0835959 C3.88037752,13.7500733 5.88037752,10.5835959 9.78037752,9.41709592 C9.88037752,9.38357332 9.98037752,9.38357332 10.0803775,9.35005072 C9.88037752,8.91709592 9.68037752,8.48414112 9.48037752,8.05118632 C5.88037752,9.18357332 2.48037752,9.11652812 2.08037752,9.11652812 C2.08037752,9.18357332 2.08037752,9.25061852 2.08037752,9.31766372 C2.08037752,11.2500733 2.68037752,13.0170507 3.58037752,14.0835959 Z M2.28037752,7.75061852 C2.68037752,7.75061852 5.48037752,7.75061852 8.88037752,6.85005072 C7.78037752,4.95061852 6.58037752,3.35005072 6.28037752,2.95061852 C4.18037752,3.88357332 2.58037752,5.65005072 2.28037752,7.75061852 Z M9.98037752,2.55118632 C10.2803775,2.95061852 11.4803775,4.55118632 12.5803775,6.51766372 C15.0803775,5.51766372 16.0803775,3.95061852 16.2803775,3.65005072 C14.8803775,2.41709592 12.9803775,1.68357332 10.8803775,1.68357332 C10.5803775,1.68357332 10.2803775,1.71709592 9.98037752,2.55118632 Z M13.5803775,7.38357332 C14.6803775,9.65005072 15.1803775,11.5835959 15.2803775,12.0835959 C16.5803775,11.0835959 17.3803775,9.58357332 17.4803775,7.88357332 C17.1803775,7.78414112 15.7803775,7.28414112 13.5803775,7.38357332 Z" fill="#FFFFFF"></path>
    </g>
</svg>
