<?xml version="1.0" encoding="UTF-8"?>
<svg width="20px" height="20px" viewBox="0 0 20 20" version="1.1" xmlns="http://www.w3.org/2000/svg" xmlns:xlink="http://www.w3.org/1999/xlink">
    <g stroke="none" stroke-width="1" fill="none" fill-rule="evenodd">
        <path d="M20,10 C20,4.47715 15.5228,0 10,0 C4.47715,0 0,4.47715 0,10 C0,14.9912 3.65684,19.1283 8.4375,19.8785 L8.4375,12.8906 L5.89844,12.8906 L5.89844,10 L8.4375,10 L8.4375,7.79688 C8.4375,5.29063 9.93047,3.90625 12.2146,3.90625 C13.3084,3.90625 14.4531,4.10156 14.4531,4.10156 L14.4531,6.5625 L13.1922,6.5625 C11.95,6.5625 11.5625,7.3334 11.5625,8.125 L11.5625,10 L14.3359,10 L13.8926,12.8906 L11.5625,12.8906 L11.5625,19.8785 C16.3432,19.1283 20,14.9912 20,10" fill="#FFFFFF" fill-rule="nonzero"></path>
    </g>
</svg>
