<?xml version="1.0" encoding="UTF-8"?>
<svg width="20px" height="20px" viewBox="0 0 20 20" version="1.1" xmlns="http://www.w3.org/2000/svg" xmlns:xlink="http://www.w3.org/1999/xlink">
    <g stroke="none" stroke-width="1" fill="none" fill-rule="evenodd">
        <path d="M4.47714,2 C3.38371,2 2.5,2.89543 2.5,4 C2.5,5.10457 3.38371,6 4.47714,6 C5.57057,6 6.45429,5.10457 6.45429,4 C6.45429,2.89543 5.57057,2 4.47714,2 Z M2.77143,7.5 C2.62857,7.5 2.5,7.62857 2.5,7.77143 L2.5,17.2286 C2.5,17.3714 2.62857,17.5 2.77143,17.5 L6.22857,17.5 C6.37143,17.5 6.5,17.3714 6.5,17.2286 L6.5,7.77143 C6.5,7.62857 6.37143,7.5 6.22857,7.5 L2.77143,7.5 Z M8.4,7.5 C8.25714,7.5 8.12857,7.62857 8.12857,7.77143 L8.12857,17.2286 C8.12857,17.3714 8.25714,17.5 8.4,17.5 L11.8571,17.5 C12,17.5 12.1286,17.3714 12.1286,17.2286 L12.1286,12.0857 C12.1286,11.4857 12.3143,10.9 12.6571,10.4857 C13,10.0714 13.4857,9.85714 14,9.85714 C14.5143,9.85714 15,10.0714 15.3429,10.4857 C15.6857,10.9 15.8714,11.4857 15.8714,12.0857 L15.8714,17.2286 C15.8714,17.3714 16,17.5 16.1429,17.5 L19.6,17.5 C19.7429,17.5 19.8714,17.3714 19.8714,17.2286 L19.8714,11.3 C19.8714,9.62857 19.3,8.17143 18.2571,7.12857 C17.2143,6.08571 15.7571,5.5 14.0857,5.5 C12.4143,5.5 11.1429,6.15714 10.3429,6.84286 L10.3429,7.77143 C10.3429,7.62857 10.2143,7.5 10.0714,7.5 L8.4,7.5 Z" fill="#FFFFFF"></path>
    </g>
</svg>
