<?xml version="1.0" encoding="UTF-8"?>
<svg width="20px" height="20px" viewBox="0 0 20 20" version="1.1" xmlns="http://www.w3.org/2000/svg" xmlns:xlink="http://www.w3.org/1999/xlink">
    <g stroke="none" stroke-width="1" fill="none" fill-rule="evenodd">
        <path d="M10,1 C14.418278,1 18,4.581722 18,9 C18,11.5013037 16.9576791,13.7484955 15.3153594,15.3153594 L10,20 L4.68464056,15.3153594 C3.04232093,13.7484955 2,11.5013037 2,9 C2,4.581722 5.581722,1 10,1 Z M10,3 C6.6862915,3 4,5.6862915 4,9 C4,10.8638394 4.78534342,12.5419893 6.05025253,13.6568542 L6.22182541,13.8284271 L10,17.1715729 L13.7781746,13.8284271 L13.9497475,13.6568542 C15.2146566,12.5419893 16,10.8638394 16,9 C16,5.6862915 13.3137085,3 10,3 Z M10,6 C11.6568542,6 13,7.34314575 13,9 C13,10.6568542 11.6568542,12 10,12 C8.34314575,12 7,10.6568542 7,9 C7,7.34314575 8.34314575,6 10,6 Z M10,8 C9.44771525,8 9,8.44771525 9,9 C9,9.55228475 9.44771525,10 10,10 C10.5522847,10 11,9.55228475 11,9 C11,8.44771525 10.5522847,8 10,8 Z" fill="#3B82F6" fill-rule="nonzero"></path>
    </g>
</svg>
