<?xml version="1.0" encoding="UTF-8"?>
<svg width="20px" height="20px" viewBox="0 0 20 20" version="1.1" xmlns="http://www.w3.org/2000/svg" xmlns:xlink="http://www.w3.org/1999/xlink">
    <g stroke="none" stroke-width="1" fill="none" fill-rule="evenodd">
        <path d="M2,3 L6,3 L8,7 L5.5,9 C6.57096774,11.1440678 8.35593221,12.9290323 10.5,14 L12.5,11.5 L16.5,13.5 L16.5,17.5 C16.5,18.3284271 15.8284271,19 15,19 C7.8,19 2,13.2 2,6 L2,3 Z M4,5 L4,6 C4,12.0751325 8.92486745,17 15,17 L15,15.0010434 L12.7999878,13.8329568 L11.2337961,15.6227356 L10.7776091,15.4173553 C7.6477665,14.0000556 5.49994441,11.8522335 4.08264474,8.72239089 L3.87726438,8.26620389 L5.66704319,6.70001221 L4.5,4.5 L4,5 Z" fill="#3B82F6" fill-rule="nonzero"></path>
    </g>
</svg>
