<?xml version="1.0" encoding="UTF-8"?>
<svg width="20px" height="20px" viewBox="0 0 20 20" version="1.1" xmlns="http://www.w3.org/2000/svg" xmlns:xlink="http://www.w3.org/1999/xlink">
    <g stroke="none" stroke-width="1" fill="none" fill-rule="evenodd">
        <path d="M17.9442,2.5 C17.9568,2.69264 17.9568,2.88528 17.9568,3.07792 C17.9568,10 13.8326,18 6.29726,18 C3.97631,18 1.81478,17.3208 0,16.1408 C0.33005,16.1792 0.64748,16.192 0.99015,16.192 C2.90547,16.192 4.67004,15.5384 6.07846,14.4208 C4.27631,14.3824 2.75789,13.1896 2.23899,11.5336 C2.5,11.572 2.76101,11.5976 3.03463,11.5976 C3.40231,11.5976 3.77,11.5464 4.11267,11.4568 C2.23899,11.0744 0.827577,9.41736 0.827577,7.4 L0.827577,7.34864 C1.37154,7.65328 1.99015,7.84592 2.64591,7.87152 C1.55031,7.1288 0.852261,5.87152 0.852261,4.4552 C0.852261,3.68688 1.06417,2.98128 1.43185,2.37104 C3.44906,4.8504 6.42114,6.46096 9.74119,6.64104 C9.67678,6.33632 9.63848,6.01904 9.63848,5.70176 C9.63848,3.44864 11.4533,1.6 13.7105,1.6 C14.8826,1.6 15.9399,2.08688 16.6889,2.8552 C17.6079,2.6752 18.4889,2.32232 19.2763,1.84808 C18.9716,2.8168 18.3403,3.6872 17.5105,4.24296 C18.3147,4.15424 19.0957,3.92864 19.8194,3.6104 C19.2763,4.49344 18.6194,5.28736 17.8699,5.95736 C17.9442,2.5 17.9442,2.5 17.9442,2.5 Z" fill="#6B7280"></path>
    </g>
</svg>
